# Blender v2.78 (sub 0) OBJ File: ''
# www.blender.org
o Cube
v 1.000000 1.000000 -1.000000
v 1.000000 1.000000 1.000000
v 1.000000 -1.000000 -1.000000
v 1.000000 -1.000000 1.000000
v -1.000000 1.000000 -1.000000
v -1.000000 1.000000 1.000000
v -1.000000 -1.000000 -1.000000
v -1.000000 -1.000000 1.000000
vt 0.7500 0.2500
vt 0.5000 0.5000
vt 0.5000 0.2500
vt 0.5000 0.7500
vt 0.2500 0.5000
vt 0.0000 0.5000
vt 0.2500 0.2500
vt 0.2500 0.0000
vt 0.2500 1.0000
vt 0.2500 0.7500
vt 0.7500 0.5000
vt 0.0000 0.2500
vt 0.5000 0.0000
vt 0.5000 1.0000
vn 0.5773 0.5773 0.5773
vn 0.5773 -0.5773 -0.5773
vn 0.5773 0.5773 -0.5773
vn 0.5773 -0.5773 0.5773
vn -0.5773 -0.5773 -0.5773
vn -0.5773 -0.5773 0.5773
vn -0.5773 0.5773 -0.5773
vn -0.5773 0.5773 0.5773
s 1
f 2/1/1 3/2/2 1/3/3
f 4/4/4 7/5/5 3/2/2
f 8/6/6 5/7/7 7/5/5
f 6/8/8 1/3/3 5/7/7
f 7/5/5 1/3/3 3/2/2
f 4/4/4 6/9/8 8/10/6
f 2/1/1 4/11/4 3/2/2
f 4/4/4 8/10/6 7/5/5
f 8/6/6 6/12/8 5/7/7
f 6/8/8 2/13/1 1/3/3
f 7/5/5 5/7/7 1/3/3
f 4/4/4 2/14/1 6/9/8
